<svg id="Laag_1" data-name="Laag 1" xmlns="http://www.w3.org/2000/svg" viewBox="0 0 400.44 401.35"><defs><style>.cls-1{fill:#fff;}</style></defs><path class="cls-1" d="M-244.68,372.36h-35.41c-8.73-1.53-17.5-2.82-26.17-4.63-76-15.84-138.48-80-152.69-156.63-1.31-7.07-2.44-14.17-3.65-21.26V153.52c1.18-6.94,2.24-13.9,3.58-20.81A199.88,199.88,0,0,1-300.95-25.49C-294-26.85-287-27.84-280.09-29h35.41c8.73,1.53,17.51,2.82,26.18,4.63C-142.55-8.53-80,55.65-65.82,132.26c1.32,7.07,2.45,14.17,3.66,21.26v36.32c-1.19,6.94-2.25,13.9-3.59,20.81a199.86,199.86,0,0,1-158.06,158.2C-230.73,370.21-237.72,371.2-244.68,372.36ZM-449.28,208.9c14.14,83.33,96.89,164.53,207.69,153.24,51.78-5.27,94.47-28.87,127.86-68.79a185.35,185.35,0,0,0,39.37-80.94c-1.68-.08-2.58-.14-3.48-.16-6.14-.12-6.68-.65-6.72-6.82,0-4.38,0-8.77,0-13.16V178.21c-2.26,3.42-3.5,6.94-5,10.37-5.65,13.3-2.45,10.9-16.77,11.29-3.83.1-5.78-1.52-7.12-4.89-2.26-5.65-4.82-11.18-7.7-17.8-.21,1.91-.35,2.63-.35,3.35,0,8.62-.09,17.25,0,25.87,0,4.15-1.54,6.22-5.91,5.88a56.68,56.68,0,0,0-7.71,0c-4.29.26-5.9-1.6-5.86-5.9.16-15.89.07-31.78.07-47.66,0-7.72.05-15.44,0-23.15,0-3.42,1.33-4.75,4.89-4.79,13.21-.13,13.21-.24,18.42,11.61.06.14.07.3.13.44,4.91,11.12,9.83,22.23,14.82,33.54,5.13-12.21,10.26-24.11,15.12-36.13,2.4-6,4.32-12.09,13-9C-90.09,50.45-168.66-28.15-277.32-19.69-375.5-12-438.71,66.11-449.26,134.44c11.54-5.79,23.66-6.14,35.67-2.51,12.44,3.75,14.93,12.54,14,23.21-.11,1.33-2.27,3.39-3.65,3.54a61,61,0,0,1-12.67,0c-1.19-.12-3-2.06-3.13-3.34-1.1-7.91-3.81-10.18-11.71-9.09-3.5.48-5.86,2.29-6.4,6s1.24,5.93,4.76,7.09c6.59,2.17,13.17,4.4,19.69,6.79,8.18,3,13.24,8.44,14.19,17.53,1.89,18.15-5.69,27.37-23.81,29.08C-431.6,213.6-440.55,212.69-449.28,208.9Zm-4-28.25h6.66c7.63,0,7.73,0,7.72,7.54,0,3.53,1,6.85,4.43,7.53a26.63,26.63,0,0,0,11.82-.2c4.81-1.35,5.64-8.68,1.66-11.87a22.14,22.14,0,0,0-5.57-2.89c-8.93-3.7-17.9-7.31-26.72-10.9Z" transform="translate(462.6 29)"/><path class="cls-1" d="M-286.54,179.22h-20.81v25.84c0,7-.19,7.16-7.07,7.18-13,0-13,0-13-13,0-21,.1-42.07-.09-63.1,0-4.24,1.28-5.75,5.45-5.4a69.25,69.25,0,0,0,10,0c3.62-.2,4.79,1.45,4.75,4.87-.13,8.76,0,17.51,0,26.61h20.81V143.13c0-12.29,0-12.29,12.16-12.29a24.66,24.66,0,0,0,2.72,0c3.94-.48,5.27,1.14,5.24,5.14q-.22,35.42,0,70.82c0,4.31-1.64,5.54-5.59,5.48-17.65-.24-14.2,1.8-14.52-14.25C-286.65,191.85-286.54,185.69-286.54,179.22Z" transform="translate(462.6 29)"/><path class="cls-1" d="M-393.3,171.32c0-6.65,0-13.3,0-19.95,0-9.92,4.82-16.69,14.37-19.51a52.67,52.67,0,0,1,30.36,0c11.47,3.43,17.47,14.82,13.91,25.81a4,4,0,0,1-3,2,78.93,78.93,0,0,1-12.68-.07c-1.26-.14-3.16-2.2-3.33-3.56-1-8.26-8.15-12.36-15.51-8.23a7.91,7.91,0,0,0-3.5,5.67c-.33,11.94-.25,23.88-.13,35.82.05,4.31,3.18,6.67,8.44,6.89,6.11.26,9.82-2.16,10.48-7a19.18,19.18,0,0,0,.06-4.08c-.23-2.74,1.26-3.82,3.7-4.09a3.05,3.05,0,0,1,.9,0c4.82.94,11.29-2.84,14.29,2.23,3.84,6.5-.3,19.4-6.33,23.91-7.75,5.78-16.88,6.23-26,5.74a51.08,51.08,0,0,1-14.46-3.16c-7.76-2.83-11.49-9-11.65-17.16C-393.4,185.54-393.3,178.43-393.3,171.32Z" transform="translate(462.6 29)"/><path class="cls-1" d="M-207.29,212.25c-1.21,0-2.43-.1-3.63,0-4.55.45-6.75-1.46-7.79-6.07-2-9.17-2.31-9.11-11.58-9.11-9.77,0-10-.05-12.25,9.42-1.05,4.42-3.29,6.08-7.59,5.78-2.56-.18-5.15,0-7.72-.05-4.93-.11-5.61-1-4.24-5.7q7.51-26.09,15.12-52.13c1.9-6.52,3.92-13,5.74-19.54.83-3,2.52-4.19,5.58-4.06a80.81,80.81,0,0,0,10.44,0c4.18-.35,5.91,1.71,7,5.41,6.59,22.89,13.3,45.74,20,68.61,1.94,6.68,1.39,7.42-5.36,7.45Zm-23.18-55.54q-2.29,11.89-4.57,23.75h8.94C-227.61,172.28-229,164.47-230.47,156.71Z" transform="translate(462.6 29)"/><path class="cls-1" d="M-172.41,195.31c7.19,0,13.81,0,20.43,0,6,0,6.34.25,6.23,6-.2,10.85,2.55,10.88-11,10.83-10.13,0-20.26-.09-30.39,0-4,0-5.72-1.48-5.7-5.61q.15-35.15,0-70.3c0-4.11,1.6-5.78,5.71-5.49a72.12,72.12,0,0,0,10,0c4.08-.29,4.79,1.93,4.78,5.3-.06,17.39,0,34.78,0,52.17Z" transform="translate(462.6 29)"/><path class="cls-1" d="M-362.54,162.36c.84-3.13-1.16-8.8,5.88-6.33v22.83a110.64,110.64,0,0,1-11.23-.08c-3.7-.37-5-4.88-3.85-12.49.48-3.22,2.47-4.71,5.66-4.54A30.58,30.58,0,0,1-362.54,162.36Zm-3.16,11,1.77.73c.56-1.53,1.53-3.06,1.54-4.6,0-.94-1.42-1.9-2.21-2.85l-1.1.74Z" transform="translate(462.6 29)"/><path class="cls-1" d="M-339.95,170.73c-.47,7.36-1.74,8.6-8.4,8.19-5.22-.33-6.53-2.64-6.1-10.78.26-5,2.68-6.81,8.72-6.41C-340.79,162.06-339.51,164-339.95,170.73Z" transform="translate(462.6 29)"/></svg>